Coordinates
version=1
nRows=7
nColumns=46
inDegrees=yes

Units are S.I. units (second, meters, Newtons, ...)
Angles are in degrees.

endheader
time	pelvis_tilt	pelvis_list	pelvis_rotation	pelvis_tx	pelvis_ty	pelvis_tz	bb_angle	bb_tx	bb_ty	bb_tz	hip_flexion_r	hip_adduction_r	hip_rotation_r	knee_angle_r	knee_angle_r_beta	ankle_angle_r	subtalar_angle_r	mtp_angle_r	crank_angle_r	hip_flexion_l	hip_adduction_l	hip_rotation_l	knee_angle_l	knee_angle_l_beta	ankle_angle_l	subtalar_angle_l	mtp_angle_l	crank_angle_l	lumbar_extension	lumbar_bending	lumbar_rotation	arm_flex_r	arm_add_r	arm_rot_r	elbow_flex_r	pro_sup_r	wrist_flex_r	wrist_dev_r	arm_flex_l	arm_add_l	arm_rot_l	elbow_flex_l	pro_sup_l	wrist_flex_l	wrist_dev_l
      0.00500000	     -7.03750400	     -6.38539781	     -8.21298783	      0.16491923	      1.06143243	     -0.29848933	      0.00000000	      0.50000000	      0.00000000	      0.25000000	     81.01812988	      7.56354003	      1.18438923	     95.40903478	      1.66520179	     11.24179684	     -8.92270940	      0.00000000	      0.00000000	     41.14276147	    -18.95990613	     -4.65009115	     63.79444284	      1.11342307	    -16.55112386	     -8.72410184	      0.00000000	      0.00000000	    -61.58567560	     -1.93235787	     10.57149416	     89.75222914	     -1.20816944	     24.14818994	     29.41320383	     21.57332869	      0.00000000	      0.00000000	     89.52451442	     -3.01842663	     32.17201579	     25.21959293	     24.47012834	      0.00000000	      0.00000000
      0.01000000	     -7.09723496	     -6.45808865	     -8.17218546	      0.16491431	      1.06129598	     -0.29854754	      0.00000000	      0.50000000	      0.00000000	      0.25000000	     81.07016338	      7.53391288	      1.09596158	     95.40619273	      1.66515219	     11.28361177	     -8.88248680	      0.00000000	      0.00000000	     41.26725068	    -18.98352820	     -4.50330532	     63.83539446	      1.11413781	    -16.58535419	     -8.74299845	      0.00000000	      0.00000000	    -61.50626662	     -1.82578816	     10.64014465	     89.75299229	     -1.42872241	     25.25906228	     29.27956726	     21.60697638	      0.00000000	      0.00000000	     89.53004031	     -3.18762435	     33.31171277	     24.84795461	     25.46269709	      0.00000000	      0.00000000
      0.01500000	     -7.08552533	     -6.41114108	     -8.19021604	      0.16490936	      1.06133155	     -0.29848713	      0.00000000	      0.50000000	      0.00000000	      0.25000000	     81.06043280	      7.54133393	      1.14858818	     95.41613273	      1.66532568	     11.32179757	     -8.85278269	      0.00000000	      0.00000000	     41.24707246	    -18.95926922	     -4.56108882	     63.81986825	      1.11386683	    -16.65000639	     -8.74289770	      0.00000000	      0.00000000	    -61.53669846	     -1.86745419	     10.59185015	     89.75169538	     -1.07337916	     23.49732646	     28.98654933	     23.97718562	      0.00000000	      0.00000000	     89.52824809	     -2.91334431	     31.41393571	     24.49790761	     27.72437709	      0.00000000	      0.00000000
      0.02000000	     -7.40909219	     -6.42679781	     -7.83607929	      0.16425378	      1.06213046	     -0.29902144	      0.00000000	      0.50000000	      0.00000000	      0.25000000	     81.17805388	      7.20375456	      1.06209352	     95.11165283	      1.66001150	     11.28307271	     -9.03058951	      0.00000000	      0.00000000	     41.68425311	    -18.59163404	     -4.09660764	     63.43442054	      1.10713950	    -17.52110068	     -9.43720581	      0.00000000	      0.00000000	    -61.50126600	     -1.50970292	     10.57287728	     89.74342772	     -1.14997488	     22.32038442	     29.77618585	     25.09447273	      0.00000000	      0.00000000	     89.48341559	     -2.96787646	     30.08550365	     25.76023290	     28.71132281	      0.00000000	      0.00000000
      0.02500000	     -7.36253827	     -6.41765211	     -7.83936207	      0.16421302	      1.06250814	     -0.29885286	      0.00000000	      0.50000000	      0.00000000	      0.25000000	     81.12887677	      7.16108977	      1.06550783	     95.13650464	      1.66044524	     11.37080138	     -8.92201515	      0.00000000	      0.00000000	     41.58962754	    -18.54866501	     -4.05291558	     63.35534145	      1.10575931	    -17.45882791	     -9.28848299	      0.00000000	      0.00000000	    -61.52925585	     -1.51918110	     10.44304695	     89.74352027	     -1.02098348	     22.25820121	     29.66852463	     25.41760692	      0.00000000	      0.00000000	     89.48929659	     -2.97343230	     29.96117234	     25.36188705	     28.98867480	      0.00000000	      0.00000000
      0.03000000	     -7.60326141	     -6.40270875	     -7.87955216	      0.16416902	      1.06184686	     -0.29855989	      0.00000000	      0.50000000	      0.00000000	      0.25000000	     81.44718834	      7.20577609	      1.04928988	     95.18035254	      1.66121053	     11.30012530	     -8.94964288	      0.00000000	      0.00000000	     41.95354806	    -18.61985424	     -3.97681791	     63.53339677	      1.10886696	    -17.28003371	     -8.89158885	      0.00000000	      0.00000000	    -61.13630061	     -1.53567355	     10.52101353	     89.74540366	     -1.54635764	     25.31048763	     29.13826166	     23.49078137	      0.00000000	      0.00000000	     89.52320967	     -3.18316729	     32.94020841	     24.38459559	     28.19630495	      0.00000000	      0.00000000
      0.03500000	     -7.58501647	     -6.32836649	     -7.87820761	      0.16415599	      1.06194216	     -0.29862224	      0.00000000	      0.50000000	      0.00000000	      0.25000000	     81.43008843	      7.17062017	      1.12470767	     95.18181741	      1.66123610	     11.31576888	     -8.91896459	      0.00000000	      0.00000000	     41.91987609	    -18.52812041	     -4.01071691	     63.49856605	      1.10825905	    -17.34501539	     -8.96512205	      0.00000000	      0.00000000	    -61.16661900	     -1.56238877	     10.42665060	     89.74616688	     -1.31335559	     24.44968449	     29.01461357	     24.02606293	      0.00000000	      0.00000000	     89.52014349	     -3.10498242	     32.18039777	     24.37141748	     28.59962799	      0.00000000	      0.00000000
